<?xml version="1.0" encoding="UTF-8" standalone="no"?>
<svg
   width="85.670952"
   height="52.362576"
   viewBox="0 0 85.670952 52.362576"
   version="1.1"
   xml:space="preserve"
   style="clip-rule:evenodd;fill-rule:evenodd;stroke-linecap:round;stroke-linejoin:round;stroke-miterlimit:1.5"
   id="svg20"
   sodipodi:docname="logo.svg"
   inkscape:version="1.2.1 (9c6d41e410, 2022-07-14, custom)"
   xmlns:inkscape="http://www.inkscape.org/namespaces/inkscape"
   xmlns:sodipodi="http://sodipodi.sourceforge.net/DTD/sodipodi-0.dtd"
   xmlns="http://www.w3.org/2000/svg"
   xmlns:svg="http://www.w3.org/2000/svg"><defs
   id="defs24" /><sodipodi:namedview
   id="namedview22"
   pagecolor="#ffffff"
   bordercolor="#666666"
   borderopacity="1.0"
   inkscape:showpageshadow="2"
   inkscape:pageopacity="0.0"
   inkscape:pagecheckerboard="0"
   inkscape:deskcolor="#d1d1d1"
   showgrid="false"
   inkscape:zoom="10.27"
   inkscape:cx="42.161636"
   inkscape:cy="26.923077"
   inkscape:window-width="2560"
   inkscape:window-height="1440"
   inkscape:window-x="2560"
   inkscape:window-y="0"
   inkscape:window-maximized="1"
   inkscape:current-layer="svg20" />
    <g
   transform="matrix(0.350808,0,0,0.350808,-168.56732,-30.901003)"
   id="g18">
        <g
   transform="matrix(0.907638,0,0,1,6.4123,-233.51)"
   id="g4">
            <path
   d="m 578.98,465.073 c 50.491,-10.361 107.638,-10.418 156.307,-1.541 l 1.936,-41.039 c 11.15,-5.882 23.682,-2.286 31.721,-6.642 7.487,-4.057 15.621,-11.023 16.514,-19.492 2.34,-22.186 -21.763,-45.395 -44.155,-45.766 -15.453,-0.256 -37.669,21.318 -40.29,26.478 3.292,-10.845 -2.391,-26.617 -8.7,-33.825 -6.849,-7.824 -20.339,-15.313 -31.677,-15.84 -11.339,-0.526 -29.101,8.099 -36.506,16.685 -7.406,8.586 -6.832,36.399 -6.832,36.399 -8.588,-19.862 -31.413,-30.736 -45.92,-32.336 -15.119,-1.666 -38.171,21.252 -42.516,34.991 -3.093,9.778 5.325,26.65 12.773,32.308 7.448,5.658 32.095,5.877 32.095,5.877 l 5.25,43.743"
   style="fill:none;stroke:#000000;stroke-width:11.57px"
   id="path2" />
        </g>
        <g
   transform="translate(35.7769,-339.933)"
   id="g8">
            <path
   d="m 545.293,506.91 c 0,0 -0.091,9.824 -0.091,10.804 0,5.511 -0.005,11.013 0.167,16.518 0.07,2.24 0.193,4.437 0.333,6.673 0.035,0.559 0.167,3.12 0.167,2.503"
   style="fill:none;stroke:#000000;stroke-width:11.05px"
   id="path6" />
        </g>
        <g
   transform="translate(35.7769,-339.933)"
   id="g12">
            <path
   d="m 545.293,506.91 c 0,0 8.24,-2.453 9.419,-2.71 8.336,-1.818 16.603,-4.376 25.026,-5.672 3.153,-0.486 6.347,-0.716 9.51,-1.168 0.616,-0.088 1.835,0.288 1.835,-0.334"
   style="fill:none;stroke:#000000;stroke-width:11.05px"
   id="path10" />
        </g>
        <g
   transform="translate(35.7769,-339.933)"
   id="g16">
            <path
   d="m 549.739,523.782 c -2.07,-0.345 3.844,-0.401 4.806,-0.562 5.515,-0.919 10.944,-1.778 16.517,-2.336 1.113,-0.111 2.222,-0.261 3.337,-0.333 0.834,-0.054 3.339,-0.167 2.503,-0.167"
   style="fill:none;stroke:#000000;stroke-width:11.05px"
   id="path14" />
        </g>
    </g>
</svg>
